Coordinates
version=1
nRows=58
nColumns=19
inDegrees=yes

Units are S.I. units (second, meters, Newtons, ...)
Angles are in degrees.

endheader
time	1_Force_X	1_Force_Y	1_Force_Z	1_Moment_X	1_Moment_Y	1_Moment_Z	1_COP_X	1_COP_Y	1_COP_Z	2_Force_X	2_Force_Y	2_Force_Z	2_Moment_X	2_Moment_Y	2_Moment_Z	2_COP_X	2_COP_Y	2_COP_Z
0.0075	31.050	0.110	5.279	-0.137	0.000	0.418	-21.525	8.735	-3.855	-0.202	0.000	0.219	0.00000	-252.08086	0.00000	0.00000	21.03644	0.00000
0.0100	31.401	-0.768	5.187	-0.154	0.000	0.394	-21.397	9.085	-3.286	-0.202	0.000	0.217	0.00000	48.12304	0.00000	0.00000	20.80568	0.00000
0.0125	31.356	-1.811	5.057	-0.165	0.000	0.407	-21.439	8.052	-3.549	-0.202	0.000	0.221	0.00000	21.32207	0.00000	0.00000	22.70086	0.00000
0.0150	31.398	-0.073	5.319	-0.119	0.000	0.387	-21.483	8.222	-3.549	-0.202	0.000	0.220	0.00000	490.78686	0.00000	0.00000	22.27369	0.00000
0.0175	31.444	-1.291	5.100	-0.153	0.000	0.408	-21.616	7.880	-3.421	-0.199	0.000	0.220	0.00000	28.19898	0.00000	0.00000	23.05105	0.00000
0.0200	31.263	-0.077	5.098	-0.107	0.000	0.379	-21.527	8.224	-3.418	-0.202	0.000	0.221	0.00000	489.28476	0.00000	0.00000	22.65311	0.00000
0.0225	31.138	0.457	5.366	-0.128	0.000	0.408	-21.743	8.908	-3.811	-0.201	0.000	0.220	0.00000	-61.71036	0.00000	0.00000	21.26105	0.00000
0.0250	31.093	-0.240	5.058	-0.145	0.000	0.419	-21.918	9.423	-3.943	-0.200	0.000	0.219	0.00000	119.76092	0.00000	0.00000	20.36853	0.00000
0.0275	31.136	0.108	5.101	-0.129	0.000	0.420	-21.830	9.249	-3.986	-0.202	0.000	0.219	0.00000	-254.87525	0.00000	0.00000	20.54615	0.00000
0.0300	31.396	-0.423	5.054	-0.125	0.000	0.380	-21.570	8.225	-3.419	-0.203	0.000	0.220	0.00000	92.02861	0.00000	0.00000	22.51832	0.00000
0.0325	31.352	-0.593	5.056	-0.131	0.000	0.396	-21.615	8.222	-3.506	-0.201	0.000	0.221	0.00000	61.09190	0.00000	0.00000	22.58000	0.00000
0.0350	31.355	-0.421	5.054	-0.143	0.000	0.386	-21.481	8.911	-3.547	-0.204	0.000	0.219	0.00000	87.50792	0.00000	0.00000	21.29918	0.00000
0.0375	31.308	-1.118	4.967	-0.140	0.000	0.390	-21.573	8.400	-3.071	-0.202	0.000	0.217	0.00000	35.79739	0.00000	0.00000	22.07140	0.00000
0.0400	31.309	-0.768	5.100	-0.136	0.000	0.390	-21.704	8.571	-3.115	-0.201	0.000	0.218	0.00000	49.88195	0.00000	0.00000	21.96064	0.00000
0.0425	31.272	-0.237	5.278	-0.156	0.000	0.423	-21.789	9.080	-3.681	-0.201	0.000	0.219	0.00000	116.79701	0.00000	0.00000	20.93549	0.00000
0.0450	31.178	-0.245	5.144	-0.132	0.000	0.390	-22.050	9.423	-3.725	-0.202	0.000	0.219	0.00000	144.96122	0.00000	0.00000	20.61692	0.00000
0.0475	31.044	0.803	5.278	-0.092	0.000	0.393	-21.787	9.080	-3.900	-0.201	0.000	0.218	0.00000	-37.47670	0.00000	0.00000	20.58625	0.00000
0.0500	31.269	0.455	5.276	-0.130	0.000	0.401	-21.829	10.108	-4.073	-0.203	0.000	0.217	0.00000	-65.18782	0.00000	0.00000	19.13517	0.00000
0.0525	31.003	-0.237	5.059	-0.143	0.000	0.419	-21.787	9.940	-3.765	-0.203	0.000	0.219	0.00000	121.41927	0.00000	0.00000	19.86275	0.00000
0.0550	31.003	0.108	5.190	-0.127	0.000	0.403	-21.744	8.393	-3.769	-0.201	0.000	0.220	0.00000	-285.72415	0.00000	0.00000	22.00515	0.00000
0.0575	31.399	-0.770	5.187	-0.135	0.000	0.397	-21.658	9.084	-3.417	-0.202	0.000	0.219	0.00000	48.05442	0.00000	0.00000	21.14566	0.00000
0.0600	31.485	-0.594	5.188	-0.130	0.000	0.397	-21.831	8.912	-3.549	-0.204	0.000	0.219	0.00000	61.25202	0.00000	0.00000	21.52527	0.00000
0.0625	30.962	-0.409	5.369	-0.143	0.000	0.426	-21.874	9.426	-3.724	-0.202	0.000	0.218	0.00000	69.00746	0.00000	0.00000	20.48475	0.00000
0.0650	30.914	0.106	4.969	-0.128	0.000	0.405	-21.830	9.424	-3.809	-0.202	0.000	0.221	0.00000	-283.69004	0.00000	0.00000	20.73141	0.00000
0.0675	31.180	-0.762	5.147	-0.146	0.000	0.424	-21.961	9.597	-3.767	-0.203	0.000	0.219	0.00000	39.60701	0.00000	0.00000	20.50101	0.00000
0.0700	31.225	0.105	5.320	-0.134	0.000	0.397	-21.742	9.078	-4.030	-0.202	0.000	0.219	0.00000	-305.79459	0.00000	0.00000	20.63643	0.00000
0.0725	31.093	0.108	5.543	-0.121	0.000	0.409	-21.874	9.425	-3.855	-0.201	0.000	0.219	0.00000	-282.51837	0.00000	0.00000	20.52698	0.00000
0.0750	31.048	-0.241	5.322	-0.140	0.000	0.394	-21.567	9.251	-3.985	-0.202	0.000	0.219	0.00000	142.71759	0.00000	0.00000	20.28534	0.00000
0.0775	31.400	-1.116	5.320	-0.151	0.000	0.392	-21.571	8.568	-3.418	-0.202	0.000	0.220	0.00000	35.54733	0.00000	0.00000	21.95951	0.00000
0.0800	31.442	-1.463	5.101	-0.152	0.000	0.405	-21.616	7.882	-3.245	-0.201	0.000	0.221	0.00000	26.04565	0.00000	0.00000	23.47500	0.00000
0.0825	30.959	0.981	5.455	-0.098	0.000	0.406	-21.832	9.938	-3.635	-0.204	0.000	0.218	0.00000	-27.28482	0.00000	0.00000	19.83992	0.00000
0.0850	31.093	-0.237	5.103	-0.150	0.000	0.422	-21.743	9.594	-3.765	-0.203	0.000	0.220	0.00000	117.57580	0.00000	0.00000	20.35998	0.00000
0.0875	31.049	-0.588	5.146	-0.152	0.000	0.415	-21.745	8.562	-3.682	-0.202	0.000	0.219	0.00000	52.68814	0.00000	0.00000	21.67215	0.00000
0.0900	31.089	1.149	5.277	-0.080	0.000	0.396	-21.919	9.252	-3.636	-0.202	0.000	0.220	0.00000	-24.24887	0.00000	0.00000	21.00391	0.00000
0.0925	31.269	0.109	5.455	-0.120	0.000	0.422	-21.699	9.251	-3.897	-0.203	0.000	0.220	0.00000	-255.20893	0.00000	0.00000	20.73054	0.00000
0.0950	31.354	-0.768	5.187	-0.145	0.000	0.382	-21.703	8.053	-3.333	-0.201	0.000	0.220	0.00000	52.16796	0.00000	0.00000	22.94042	0.00000
0.0975	31.356	-0.765	5.321	-0.150	0.000	0.395	-21.659	8.054	-3.201	-0.202	0.000	0.220	0.00000	48.49065	0.00000	0.00000	23.07650	0.00000
0.1000	31.403	0.279	5.319	-0.146	0.000	0.387	-21.876	8.735	-3.683	-0.202	0.000	0.218	0.00000	-117.94287	0.00000	0.00000	21.38440	0.00000
0.1025	31.181	0.456	5.454	-0.120	0.000	0.398	-21.613	9.424	-3.636	-0.203	0.000	0.218	0.00000	-67.17952	0.00000	0.00000	20.25513	0.00000
0.1050	31.268	-1.285	5.278	-0.160	0.000	0.395	-21.439	8.912	-3.372	-0.205	0.000	0.219	0.00000	30.68539	0.00000	0.00000	21.33444	0.00000
0.1075	31.357	-1.113	5.410	-0.154	0.000	0.398	-21.483	8.052	-3.506	-0.201	0.000	0.221	0.00000	34.26704	0.00000	0.00000	22.72690	0.00000
0.1100	31.356	-0.939	5.498	-0.145	0.000	0.396	-21.485	8.399	-3.158	-0.202	0.000	0.217	0.00000	40.76650	0.00000	0.00000	21.96684	0.00000
0.1125	31.397	-0.420	5.055	-0.130	0.000	0.396	-21.744	8.223	-3.506	-0.203	0.000	0.221	0.00000	84.02609	0.00000	0.00000	22.74728	0.00000
0.1150	31.314	-1.458	5.367	-0.162	0.000	0.412	-21.877	8.054	-3.333	-0.201	0.000	0.220	0.00000	24.80941	0.00000	0.00000	23.18463	0.00000
0.1175	31.313	0.111	5.322	-0.141	0.000	0.411	-21.745	8.566	-3.550	-0.200	0.000	0.221	0.00000	-262.49674	0.00000	0.00000	22.02457	0.00000
0.1200	31.140	-0.584	5.544	-0.164	0.000	0.402	-21.788	9.252	-3.680	-0.202	0.000	0.219	0.00000	58.17280	0.00000	0.00000	20.80817	0.00000
0.1225	31.357	-0.065	5.366	-0.143	0.000	0.408	-21.702	9.082	-3.419	-0.202	0.000	0.218	0.00000	474.33774	0.00000	0.00000	20.92119	0.00000
0.1250	31.179	-0.066	5.322	-0.129	0.000	0.401	-21.877	9.080	-3.505	-0.203	0.000	0.220	0.00000	493.23084	0.00000	0.00000	21.43795	0.00000
0.1275	31.140	-0.409	5.677	-0.147	0.000	0.422	-21.876	9.595	-3.548	-0.205	0.000	0.219	0.00000	72.25614	0.00000	0.00000	20.52651	0.00000
0.1300	31.183	-0.064	5.631	-0.136	0.000	0.406	-21.747	9.253	-3.286	-0.203	0.000	0.220	0.00000	491.61822	0.00000	0.00000	21.19008	0.00000
0.1325	31.530	-0.943	5.276	-0.139	0.000	0.386	-21.528	7.365	-3.332	-0.200	0.000	0.222	0.00000	43.23170	0.00000	0.00000	24.47735	0.00000
0.1350	31.441	-0.592	5.365	-0.135	0.000	0.379	-21.529	8.912	-3.109	-0.203	0.000	0.221	0.00000	68.03004	0.00000	0.00000	21.89059	0.00000
0.1375	31.311	0.282	5.366	-0.127	0.000	0.398	-21.877	8.906	-3.551	-0.202	0.000	0.219	0.00000	-111.16317	0.00000	0.00000	21.34226	0.00000
0.1400	31.225	-0.063	5.499	-0.139	0.000	0.405	-21.704	9.078	-3.373	-0.203	0.000	0.220	0.00000	497.46002	0.00000	0.00000	21.29424	0.00000
0.1425	31.355	0.805	5.454	-0.108	0.000	0.398	-21.790	9.080	-3.507	-0.202	0.000	0.218	0.00000	-36.06281	0.00000	0.00000	20.92185	0.00000
0.1450	31.181	1.328	5.587	-0.090	0.000	0.411	-21.878	9.424	-3.417	-0.202	0.000	0.219	0.00000	-18.39163	0.00000	0.00000	20.85619	0.00000
0.1475	31.314	-0.412	5.455	-0.153	0.000	0.408	-21.923	9.080	-3.201	-0.203	0.000	0.219	0.00000	78.29096	0.00000	0.00000	21.45459	0.00000
0.1500	31.444	0.803	5.629	-0.110	0.000	0.380	-21.879	9.079	-3.421	-0.202	0.000	0.218	0.00000	-40.45933	0.00000	0.00000	20.94275	0.00000
